<?xml version="1.0" encoding="UTF-8"?>
<!DOCTYPE svg PUBLIC "-//W3C//DTD SVG 1.1//EN" "http://www.w3.org/Graphics/SVG/1.1/DTD/svg11.dtd">
<svg xmlns="http://www.w3.org/2000/svg" version="1.1" width="4096px" height="2000px" style="shape-rendering:geometricPrecision; text-rendering:geometricPrecision; image-rendering:optimizeQuality; fill-rule:evenodd; clip-rule:evenodd" xmlns:xlink="http://www.w3.org/1999/xlink">
<g><path style="opacity:0.997" fill="#35b8b1" d="M -0.5,1079.5 C -0.5,1077.83 -0.5,1076.17 -0.5,1074.5C 131.026,1047.6 262.359,1019.93 393.5,991.5C 363.988,856.941 334.988,722.274 306.5,587.5C 397.832,568.5 489.165,549.5 580.5,530.5C 609.267,664.166 638.1,797.833 667,931.5C 684.292,773.201 701.292,614.868 718,456.5C 719.569,455.878 721.236,455.544 723,455.5C 814.144,465.131 905.311,474.464 996.5,483.5C 972.059,720.24 946.893,956.907 921,1193.5C 868.5,1309.83 816,1426.17 763.5,1542.5C 760.19,1543.35 756.856,1543.18 753.5,1542C 525.492,1494.16 297.492,1446.33 69.5,1398.5C 46.1474,1292.06 22.814,1185.73 -0.5,1079.5 Z M 468.5,1072.5 C 483.308,1073.74 495.974,1079.57 506.5,1090C 512.742,1097.68 515.409,1106.51 514.5,1116.5C 512.938,1143.06 498.938,1158.06 472.5,1161.5C 460.131,1160.88 448.464,1157.71 437.5,1152C 427.069,1142.72 422.069,1131.05 422.5,1117C 420.62,1096.39 429.286,1082.72 448.5,1076C 455.234,1074.38 461.901,1073.22 468.5,1072.5 Z M 655.5,1097.5 C 675.659,1096.33 691.825,1103.67 704,1119.5C 710.765,1130.44 712.265,1142.1 708.5,1154.5C 705.342,1164.99 700.008,1174.16 692.5,1182C 682.31,1188.07 671.31,1190.07 659.5,1188C 628.698,1184.87 615.531,1168.04 620,1137.5C 624.299,1117.37 636.132,1104.04 655.5,1097.5 Z"/></g>
<g><path style="opacity:0.987" fill="#35b8b1" d="M 2245.5,763.5 C 2284.46,762.794 2305.79,781.794 2309.5,820.5C 2304.83,860.334 2282.5,878.834 2242.5,876C 2207.16,866.196 2192.33,843.029 2198,806.5C 2204.87,782.12 2220.71,767.787 2245.5,763.5 Z"/></g>
<g><path style="opacity:0.993" fill="#35b8b1" d="M 1483.5,770.5 C 1513.5,770.5 1543.5,770.5 1573.5,770.5C 1573.33,913.5 1573.5,1056.5 1574,1199.5C 1578.94,1223.09 1584.11,1246.59 1589.5,1270C 1557.84,1270.5 1526.17,1270.67 1494.5,1270.5C 1492.27,1256.33 1489.27,1242.33 1485.5,1228.5C 1447.35,1270.05 1400.35,1285.55 1344.5,1275C 1295.26,1262.76 1259.43,1233.92 1237,1188.5C 1212.65,1131.38 1211.31,1073.72 1233,1015.5C 1266.32,942.244 1323.16,910.078 1403.5,919C 1435.42,925.031 1461.92,940.198 1483,964.5C 1483.5,899.834 1483.67,835.168 1483.5,770.5 Z M 1384.5,1010.5 C 1415.33,1008.05 1441.83,1017.38 1464,1038.5C 1482.36,1062.62 1488.36,1089.62 1482,1119.5C 1472.11,1155.72 1448.61,1176.89 1411.5,1183C 1384.16,1187.25 1359.16,1181.58 1336.5,1166C 1309.93,1142.28 1300.09,1112.78 1307,1077.5C 1313.94,1045.9 1332.77,1025.06 1363.5,1015C 1370.57,1013.15 1377.57,1011.65 1384.5,1010.5 Z"/></g>
<g><path style="opacity:0.993" fill="#35b8b1" d="M 2038.5,770.5 C 2068.5,770.5 2098.5,770.5 2128.5,770.5C 2128.5,937.167 2128.5,1103.83 2128.5,1270.5C 2098.5,1270.5 2068.5,1270.5 2038.5,1270.5C 2038.5,1103.83 2038.5,937.167 2038.5,770.5 Z"/></g>
<g><path style="opacity:0.99" fill="#35b8b1" d="M 1794.5,915.5 C 1843.94,912.593 1887.61,926.76 1925.5,958C 1963.96,995.318 1982.96,1040.98 1982.5,1095C 1982.28,1108.95 1980.94,1122.79 1978.5,1136.5C 1894.83,1136.33 1811.17,1136.5 1727.5,1137C 1742.79,1166.5 1767.12,1182.83 1800.5,1186C 1844.34,1189.73 1885.67,1181.23 1924.5,1160.5C 1936.55,1185.63 1948.21,1210.96 1959.5,1236.5C 1936.09,1252.53 1910.43,1263.7 1882.5,1270C 1832.65,1281.99 1783.65,1279.32 1735.5,1262C 1675.75,1235.07 1641.92,1188.9 1634,1123.5C 1628.33,1078.5 1636.33,1036.16 1658,996.5C 1689.99,947.074 1735.49,920.074 1794.5,915.5 Z M 1790.5,1005.5 C 1814.47,1002.95 1837.14,1007.11 1858.5,1018C 1875.65,1029.18 1886.65,1044.85 1891.5,1065C 1834.5,1065.83 1777.5,1065.67 1720.5,1064.5C 1731.03,1029.63 1754.37,1009.97 1790.5,1005.5 Z"/></g>
<g><path style="opacity:0.99" fill="#35b8b1" d="M 3282.5,915.5 C 3302.35,914.978 3321.69,918.478 3340.5,926C 3345.49,928.161 3350.16,930.828 3354.5,934C 3340.3,965.575 3325.96,997.075 3311.5,1028.5C 3286.1,1012.26 3259.1,1009.09 3230.5,1019C 3216.17,1025 3205.34,1034.83 3198,1048.5C 3197.5,1122.5 3197.33,1196.5 3197.5,1270.5C 3167.5,1270.5 3137.5,1270.5 3107.5,1270.5C 3107.67,1177.5 3107.5,1084.5 3107,991.5C 3101.97,968.86 3097.14,946.193 3092.5,923.5C 3123.17,923.333 3153.84,923.5 3184.5,924C 3187.91,937.79 3191.24,951.624 3194.5,965.5C 3216.14,935.344 3245.48,918.677 3282.5,915.5 Z"/></g>
<g><path style="opacity:0.991" fill="#35b8b1" d="M 2860.5,916.5 C 2918.41,912.893 2967.24,931.893 3007,973.5C 3035.65,1009.11 3049.82,1049.94 3049.5,1096C 3049.28,1109.95 3047.94,1123.79 3045.5,1137.5C 2961.83,1137.33 2878.17,1137.5 2794.5,1138C 2810.02,1167.78 2834.69,1184.12 2868.5,1187C 2911.98,1190.6 2952.98,1182.1 2991.5,1161.5C 3003.55,1186.63 3015.21,1211.96 3026.5,1237.5C 3006.35,1251.4 2984.35,1261.56 2960.5,1268C 2909.99,1282.5 2859.99,1281.83 2810.5,1266C 2748.61,1242.09 2712.45,1197.26 2702,1131.5C 2693.72,1079.22 2703.72,1030.89 2732,986.5C 2764.23,943.964 2807.06,920.63 2860.5,916.5 Z M 2859.5,1005.5 C 2882.65,1003.07 2904.65,1006.9 2925.5,1017C 2943.61,1028.38 2954.94,1044.55 2959.5,1065.5C 2902.83,1065.5 2846.17,1065.5 2789.5,1065.5C 2794.77,1042.06 2808.11,1024.89 2829.5,1014C 2839.28,1009.89 2849.28,1007.06 2859.5,1005.5 Z"/></g>
<g><path style="opacity:0.992" fill="#35b8b1" d="M 3509.5,916.5 C 3557.65,913.5 3600.65,926.666 3638.5,956C 3674.1,987.37 3694.27,1026.87 3699,1074.5C 3704.64,1125.62 3692.64,1171.96 3663,1213.5C 3623.97,1259.42 3574.14,1280.92 3513.5,1278C 3449.64,1274.7 3401.47,1245.87 3369,1191.5C 3345.38,1144.21 3340.04,1094.88 3353,1043.5C 3377.26,966.74 3429.42,924.406 3509.5,916.5 Z M 3513.5,1010.5 C 3538.79,1008.52 3561.79,1014.69 3582.5,1029C 3606.37,1050.93 3616.2,1078.1 3612,1110.5C 3606.09,1149.41 3583.92,1173.24 3545.5,1182C 3515.1,1188.12 3487.44,1182.12 3462.5,1164C 3437.35,1139.53 3428.51,1110.03 3436,1075.5C 3443.81,1043.38 3463.64,1022.88 3495.5,1014C 3501.62,1012.71 3507.62,1011.54 3513.5,1010.5 Z"/></g>
<g><path style="opacity:0.992" fill="#35b8b1" d="M 4095.5,1077.5 C 4095.5,1090.5 4095.5,1103.5 4095.5,1116.5C 4089.91,1175.87 4062.25,1221.7 4012.5,1254C 3953.98,1284.6 3894.65,1286.27 3834.5,1259C 3784.98,1231.84 3755.14,1190.34 3745,1134.5C 3736.21,1083.88 3744.88,1036.54 3771,992.5C 3803.45,946.008 3848.28,920.842 3905.5,917C 3964.42,913.183 4013.92,932.683 4054,975.5C 4077.91,1005.39 4091.74,1039.39 4095.5,1077.5 Z M 3908.5,1010.5 C 3938.9,1007.69 3965.07,1016.69 3987,1037.5C 4006.37,1061.67 4012.7,1089.01 4006,1119.5C 3996.12,1155.71 3972.62,1176.88 3935.5,1183C 3900.42,1188.53 3870.92,1178.36 3847,1152.5C 3829.49,1127.12 3824.82,1099.45 3833,1069.5C 3840.43,1045.07 3855.93,1027.9 3879.5,1018C 3889.01,1014.37 3898.68,1011.87 3908.5,1010.5 Z"/></g>
<g><path style="opacity:0.991" fill="#35b8b1" d="M 2208.5,923.5 C 2238.17,923.5 2267.83,923.5 2297.5,923.5C 2297.5,1039.17 2297.5,1154.83 2297.5,1270.5C 2267.5,1270.5 2237.5,1270.5 2207.5,1270.5C 2207.17,1154.76 2207.5,1039.1 2208.5,923.5 Z"/></g>
<g><path style="opacity:0.99" fill="#35b8b1" d="M 2345.5,923.5 C 2377.51,923.167 2409.51,923.5 2441.5,924.5C 2464.34,1017.18 2487.17,1109.84 2510,1202.5C 2532.41,1109.77 2555.08,1017.1 2578,924.5C 2610.43,923.504 2642.93,923.171 2675.5,923.5C 2644.99,1038.89 2614.15,1154.22 2583,1269.5C 2558.9,1270.16 2534.74,1270.5 2510.5,1270.5C 2486.26,1270.5 2462.1,1270.16 2438,1269.5C 2406.48,1154.07 2375.65,1038.73 2345.5,923.5 Z"/></g>
</svg>
